# xmcd
#
# Track frame offsets: 
#        150
#        8005
#        28050
#        48165
#        59455
#        70195
#        81210
#        92210
#        110385
#        129895
#        153245
#        180020
#        195655
#        209510
#        225760
#        242085
#        258495
#        270730
#        292945
#        304745
#        320200
#
# Disc length: 4495 seconds
#
# Revision: 1
# Processed by: cddbd v1.5.2PL0 Copyright (c) Steve Scherf et al.
# Submitted via: ExactAudioCopy v0.95b4
#
DISCID=15118d15
DTITLE=Ella Fitzgerald and her trio - All roads lead to Rome
DYEAR=2005
DGENRE=Jazz
TTITLE0=01- This can't be love
TTITLE1=02- I got it bad (And that ain't good)
TTITLE2=03- Body and soul
TTITLE3=04- Too close for comfort
TTITLE4=05- Lullaby  of birdland
TTITLE5=06- I've got a crush on you
TTITLE6=07- I'm gonna sit right down and write myself a letter
TTITLE7=08- April in Paris
TTITLE8=09- Air mail special
TTITLE9=10- I can't give you anything by love
TTITLE10=11- St. Louis blues
TTITLE11=12- These foolish things
TTITLE12=13- just squeeze me
TTITLE13=14- Angel eyes
TTITLE14=15- That old black magic
TTITLE15=16-Just one of those things
TTITLE16=17- Caravan
TTITLE17=18- I loves you, Porgy
TTITLE18=19- It's all right with me
TTITLE19=20- I can't give you anything by love
TTITLE20=21- Midnight sun
EXTD=
EXTT0=
EXTT1=
EXTT2=
EXTT3=
EXTT4=
EXTT5=
EXTT6=
EXTT7=
EXTT8=
EXTT9=
EXTT10=
EXTT11=
EXTT12=
EXTT13=
EXTT14=
EXTT15=
EXTT16=
EXTT17=
EXTT18=
EXTT19=
EXTT20=
PLAYORDER=
